<?xml version="1.0" standalone="no"?>
<svg xmlns:xlink="http://www.w3.org/1999/xlink" id="wave" style="transform:rotate(180deg); transition: 0.3s" viewBox="0 0 1440 270" version="1.1" xmlns="http://www.w3.org/2000/svg"><defs><linearGradient id="sw-gradient-0" x1="0" x2="0" y1="1" y2="0"><stop stop-color="rgba(230, 112, 112, 1)" offset="0%"/><stop stop-color="rgba(230, 112, 112, 1)" offset="100%"/></linearGradient></defs><path style="transform:translate(0, 0px); opacity:1" fill="url(#sw-gradient-0)" d="M0,162L34.3,144C68.6,126,137,90,206,94.5C274.3,99,343,144,411,162C480,180,549,171,617,148.5C685.7,126,754,90,823,94.5C891.4,99,960,144,1029,144C1097.1,144,1166,99,1234,76.5C1302.9,54,1371,54,1440,76.5C1508.6,99,1577,144,1646,166.5C1714.3,189,1783,189,1851,184.5C1920,180,1989,171,2057,144C2125.7,117,2194,72,2263,85.5C2331.4,99,2400,171,2469,175.5C2537.1,180,2606,117,2674,81C2742.9,45,2811,36,2880,54C2948.6,72,3017,117,3086,112.5C3154.3,108,3223,54,3291,45C3360,36,3429,72,3497,85.5C3565.7,99,3634,90,3703,90C3771.4,90,3840,99,3909,90C3977.1,81,4046,54,4114,76.5C4182.9,99,4251,171,4320,184.5C4388.6,198,4457,153,4526,139.5C4594.3,126,4663,144,4731,130.5C4800,117,4869,72,4903,49.5L4937.1,27L4937.1,270L4902.9,270C4868.6,270,4800,270,4731,270C4662.9,270,4594,270,4526,270C4457.1,270,4389,270,4320,270C4251.4,270,4183,270,4114,270C4045.7,270,3977,270,3909,270C3840,270,3771,270,3703,270C3634.3,270,3566,270,3497,270C3428.6,270,3360,270,3291,270C3222.9,270,3154,270,3086,270C3017.1,270,2949,270,2880,270C2811.4,270,2743,270,2674,270C2605.7,270,2537,270,2469,270C2400,270,2331,270,2263,270C2194.3,270,2126,270,2057,270C1988.6,270,1920,270,1851,270C1782.9,270,1714,270,1646,270C1577.1,270,1509,270,1440,270C1371.4,270,1303,270,1234,270C1165.7,270,1097,270,1029,270C960,270,891,270,823,270C754.3,270,686,270,617,270C548.6,270,480,270,411,270C342.9,270,274,270,206,270C137.1,270,69,270,34,270L0,270Z"/><defs><linearGradient id="sw-gradient-1" x1="0" x2="0" y1="1" y2="0"><stop stop-color="rgba(182, 109, 109, 1)" offset="0%"/><stop stop-color="rgba(182, 109, 109, 1)" offset="100%"/></linearGradient></defs><path style="transform:translate(0, 50px); opacity:0.9" fill="url(#sw-gradient-1)" d="M0,216L34.3,211.5C68.6,207,137,198,206,166.5C274.3,135,343,81,411,81C480,81,549,135,617,166.5C685.7,198,754,207,823,175.5C891.4,144,960,72,1029,63C1097.1,54,1166,108,1234,121.5C1302.9,135,1371,108,1440,85.5C1508.6,63,1577,45,1646,67.5C1714.3,90,1783,153,1851,148.5C1920,144,1989,72,2057,67.5C2125.7,63,2194,126,2263,126C2331.4,126,2400,63,2469,72C2537.1,81,2606,162,2674,175.5C2742.9,189,2811,135,2880,135C2948.6,135,3017,189,3086,193.5C3154.3,198,3223,153,3291,148.5C3360,144,3429,180,3497,180C3565.7,180,3634,144,3703,117C3771.4,90,3840,72,3909,81C3977.1,90,4046,126,4114,126C4182.9,126,4251,90,4320,94.5C4388.6,99,4457,144,4526,135C4594.3,126,4663,63,4731,54C4800,45,4869,90,4903,112.5L4937.1,135L4937.1,270L4902.9,270C4868.6,270,4800,270,4731,270C4662.9,270,4594,270,4526,270C4457.1,270,4389,270,4320,270C4251.4,270,4183,270,4114,270C4045.7,270,3977,270,3909,270C3840,270,3771,270,3703,270C3634.3,270,3566,270,3497,270C3428.6,270,3360,270,3291,270C3222.9,270,3154,270,3086,270C3017.1,270,2949,270,2880,270C2811.4,270,2743,270,2674,270C2605.7,270,2537,270,2469,270C2400,270,2331,270,2263,270C2194.3,270,2126,270,2057,270C1988.6,270,1920,270,1851,270C1782.9,270,1714,270,1646,270C1577.1,270,1509,270,1440,270C1371.4,270,1303,270,1234,270C1165.7,270,1097,270,1029,270C960,270,891,270,823,270C754.3,270,686,270,617,270C548.6,270,480,270,411,270C342.9,270,274,270,206,270C137.1,270,69,270,34,270L0,270Z"/><defs><linearGradient id="sw-gradient-2" x1="0" x2="0" y1="1" y2="0"><stop stop-color="rgba(132, 102, 81, 1)" offset="0%"/><stop stop-color="rgba(132, 102, 81, 1)" offset="100%"/></linearGradient></defs><path style="transform:translate(0, 100px); opacity:0.8" fill="url(#sw-gradient-2)" d="M0,108L34.3,112.5C68.6,117,137,126,206,130.5C274.3,135,343,135,411,144C480,153,549,171,617,180C685.7,189,754,189,823,180C891.4,171,960,153,1029,139.5C1097.1,126,1166,117,1234,126C1302.9,135,1371,162,1440,180C1508.6,198,1577,207,1646,216C1714.3,225,1783,234,1851,220.5C1920,207,1989,171,2057,135C2125.7,99,2194,63,2263,54C2331.4,45,2400,63,2469,90C2537.1,117,2606,153,2674,175.5C2742.9,198,2811,207,2880,202.5C2948.6,198,3017,180,3086,180C3154.3,180,3223,198,3291,207C3360,216,3429,216,3497,184.5C3565.7,153,3634,90,3703,67.5C3771.4,45,3840,63,3909,58.5C3977.1,54,4046,27,4114,49.5C4182.9,72,4251,144,4320,144C4388.6,144,4457,72,4526,76.5C4594.3,81,4663,162,4731,171C4800,180,4869,117,4903,85.5L4937.1,54L4937.1,270L4902.9,270C4868.6,270,4800,270,4731,270C4662.9,270,4594,270,4526,270C4457.1,270,4389,270,4320,270C4251.4,270,4183,270,4114,270C4045.7,270,3977,270,3909,270C3840,270,3771,270,3703,270C3634.3,270,3566,270,3497,270C3428.6,270,3360,270,3291,270C3222.9,270,3154,270,3086,270C3017.1,270,2949,270,2880,270C2811.4,270,2743,270,2674,270C2605.7,270,2537,270,2469,270C2400,270,2331,270,2263,270C2194.3,270,2126,270,2057,270C1988.6,270,1920,270,1851,270C1782.9,270,1714,270,1646,270C1577.1,270,1509,270,1440,270C1371.4,270,1303,270,1234,270C1165.7,270,1097,270,1029,270C960,270,891,270,823,270C754.3,270,686,270,617,270C548.6,270,480,270,411,270C342.9,270,274,270,206,270C137.1,270,69,270,34,270L0,270Z"/></svg>